<?xml version="1.0" encoding="UTF-8" standalone="no"?>
<svg
   xmlns="http://www.w3.org/2000/svg"
   viewBox="0 0 748.97235 748.25214"
   height="748.25214"
   width="748.97235"
   id="svg3713"
   version="1.1">
  
  <image
     y="-38.597481"
     x="1307.8354"
     id="image3721"
     preserveAspectRatio="none"
     height="792"
     width="886.66669" />
  <path
     id="path3723"
     d="M 337.84198,747.38787 C 187.13073,731.82656 60.290041,627.83436 15.941819,483.47329 -0.96661321,428.43347 -4.6164212,364.15676 5.9101888,306.80663 20.173689,229.09759 57.534011,159.28907 114.01714,104.80663 171.82095,49.050288 240.47903,15.372832 322.50864,2.5395129 c 21.37623,-3.34425402 81.90398,-3.39693602 103.66501,-0.09023 65.79214,9.9974861 122.21581,33.4613821 175.00167,72.7747981 20.3348,15.144787 57.13527,51.965489 72.4542,72.494039 42.61528,57.10776 66.8786,119.25395 74.32487,190.36999 2.04117,19.49424 0.83932,71.92897 -2.06406,90.05185 -10.67836,66.65425 -34.38633,122.15285 -75.18393,176 -14.09396,18.60205 -49.35091,53.46717 -68.86442,68.09908 -53.31362,39.97643 -109.56281,63.44857 -175.81204,73.36436 -16.30675,2.44071 -71.09522,3.54933 -88.18796,1.78447 z m 74.66801,-58.58175 c 4.77555,-1.81567 26.79591,-20.66028 41.50042,-35.51529 45.7599,-46.22828 70.50959,-94.89094 73.48421,-144.4842 1.4768,-24.62131 3.57555,-7.40115 3.57507,29.33333 -3.9e-4,30.56783 -0.23645,33.78033 -3.67413,50 -4.33843,20.46951 -13.363,48.26583 -20.87454,64.29503 -2.95336,6.30229 -5.11523,11.71322 -4.80417,12.02429 0.70922,0.70923 29.96543,-14.16877 38.37808,-19.51685 5.70524,-3.62692 6.49492,-4.78762 9.01552,-13.25134 8.66119,-29.08262 14.46189,-66.82286 15.60851,-101.55113 1.40645,-42.59811 -2.63647,-69.1166 -14.12766,-92.66667 -15.60261,-31.97604 -44.95481,-51.46741 -85.3414,-56.67112 -30.51391,-3.93162 -74.57451,6.8788 -109.82751,26.94656 -56.38412,32.09667 -98.68703,89.09578 -126.39336,170.30295 -3.61132,10.58477 -6.83822,19.51721 -7.17086,19.84987 -1.17956,1.17954 -19.91436,-15.2349 -30.93045,-27.09962 -26.77595,-28.83862 -43.49121,-59.91168 -49.87777,-92.72088 -2.15684,-11.08014 -2.15684,-39.4687 0,-50.54885 2.69326,-13.83591 7.90966,-29.08849 14.84018,-43.39224 9.98726,-20.61247 25.82244,-43.85153 19.38938,-28.45505 -2.43916,5.83773 -7.98855,28.02765 -10.28398,41.12172 -2.60445,14.8569 -2.24162,50.08578 0.65914,64 6.50485,31.20202 17.24341,52.80496 38.6858,77.82477 l 6.70596,7.82477 3.08918,-9.1581 c 13.40788,-39.74851 53.06962,-89.46155 103.59805,-129.85243 15.42381,-12.32933 15.5872,-12.51776 12.72592,-14.67603 -5.23459,-3.94845 -2.88846,-6.82458 11.45358,-14.04101 47.27761,-23.78845 116.35275,-33.46805 160.25766,-22.45712 49.56586,12.43064 83.05084,51.99195 99.60388,117.67841 6.06636,24.07283 11.24647,62.34536 11.48518,84.85674 0.0621,5.86666 0.51862,13.32117 1.01426,16.56557 l 0.90118,5.89891 7.44554,-9.23224 c 22.28443,-27.63196 41.16842,-62.14539 52.72214,-96.35791 l 5.02352,-14.87545 -3.11,-9.65623 c -7.27433,-22.58608 -19.47428,-43.49521 -35.44009,-60.73976 -9.75849,-10.54008 -26.70122,-23.89929 -36.80066,-29.01708 -3.57892,-1.81357 -6.50712,-3.49647 -6.50712,-3.73976 0,-0.8052 15.20764,1.86003 22.66667,3.97245 17.86167,5.05854 40.91307,18.49298 59.40887,34.62375 l 9.60492,8.37675 0.81177,-4.9095 c 1.52108,-9.19945 0.84648,-44.87988 -1.17531,-62.16366 -2.13437,-18.24618 -6.66949,-40.23378 -11.6907,-56.68004 l -3.03303,-9.93422 -7.96325,-3.1002 c -24.21384,-9.42676 -50.56414,-14.12994 -79.29661,-14.15344 -53.96358,-0.0441 -95.81328,13.56374 -172.94661,56.23542 -26.70638,14.77448 -33.82582,16.89808 -56.38673,16.81913 -14.74604,-0.0516 -19.54444,-0.58008 -26.54345,-2.92333 -7.7054,-2.57975 -8.91025,-2.67064 -12.28279,-0.92664 -11.49189,5.94268 -42.72165,9.87689 -63.1828,7.95952 l -10.59763,-0.99308 11.30334,-4.25612 c 31.40997,-11.82703 44.48215,-25.306 69.30281,-71.45951 12.50386,-23.25064 19.20262,-33.18639 31.03635,-46.03373 17.11115,-18.5768 48.06683,-42.10984 69.63084,-52.93459 l 8,-4.01585 -16.08794,16.49209 c -17.91832,18.36843 -33.78555,37.74689 -44.07267,53.82541 -6.68451,10.44775 -19.74558,35.2697 -18.92259,35.96154 0.22909,0.1926 20.17879,-20.831 44.33266,-46.7191 37.47712,-40.16793 44.27053,-46.87957 46.33333,-45.7756 4.16143,2.22712 6.43659,7.16995 7.5474,16.3968 1.58899,13.19882 3.11691,13.98391 12.86981,6.61292 33.76247,-25.51677 70.41145,-44.06966 101.02254,-51.14082 15.33269,-3.54186 15.52365,-2.56855 -3.28359,-16.73584 -16.30822,-12.28482 -40.98764,-26.973102 -58.62593,-34.892012 l -13.42791,-6.0286 -11.50923,2.9907 c -61.73334,16.04158 -121.17344,45.895792 -171.50921,86.141732 -18.79856,15.03038 -51.46639,47.69459 -66.52899,66.52162 -22.4088,28.00918 -47.47102,68.9313 -47.47102,77.51169 0,4.54568 3.03332,11.16936 7.09288,15.48831 4.28871,4.56273 3.829,4.593 -15.85293,1.04369 -9.97323,-1.79851 -15.07347,-3.34547 -16.22589,-4.92151 -4.85791,-6.6436 -0.0813,-23.5982 15.3415,-54.45552 34.90184,-69.82988 90.06882,-128.54745 161.64445,-172.048022 15.57494,-9.46579 47.64849,-25.654279 62,-31.293296 5.86667,-2.30514 11.15788,-4.667564 11.75824,-5.249833 0.60037,-0.582268 -6.86953,-1.823812 -16.59977,-2.758986 -30.27527,-2.909753 -71.38507,-0.399362 -99.82514,6.09587 -60.8531,13.897825 -117.51359,46.143407 -160.47571,91.327007 -45.535479,47.89 -74.072779,106.91273 -84.415589,174.59393 -3.27933,21.45927 -3.23725,66.67397 0.0825,88.66667 13.67158,90.57076 63.895169,169.83501 139.392139,219.99249 15.00837,9.97101 39.07687,22.76048 54.0833,28.73864 10.52979,4.19479 10.88053,4.23935 27.33333,3.47283 76.86149,-3.58094 148.60701,-40.89271 195.24256,-101.5373 5.07538,-6.6 9.75985,-12.6 10.40993,-13.33333 1.66877,-1.88252 -0.68283,4.04207 -6.15537,15.50768 -20.89511,43.77761 -57.87086,86.87647 -96.49711,112.47679 -5.31667,3.52373 -9.66667,6.70334 -9.66667,7.06582 0,1.05182 34.68813,-1.12445 38.00135,-2.38413 z M 188.13228,383.80663 c 0.44648,-6.19539 1.80001,-11.28524 4.34344,-16.33334 4.70461,-9.3375 12.44976,-20 14.52781,-20 2.16171,0 10.17178,10.57678 10.17178,13.43118 0,1.28533 -1.3761,2.62512 -3.15479,3.07153 -3.2046,0.80431 -10.86721,9.1612 -20.01699,21.83063 -2.78044,3.85 -5.38486,7 -5.78761,7 -0.40275,0 -0.44039,-4.05 -0.0836,-9 z m 182.21003,-74.37652 c 12.56518,-2.96198 29.92734,-12.54936 45.61428,-25.18819 17.555,-14.14391 24.00454,-24.41068 27.19403,-43.28916 0.88668,-5.24821 1.88821,-6.39197 12.49432,-14.26871 14.5438,-10.8011 32.3558,-19.71694 46.5368,-23.2941 15.76446,-3.97659 17.42238,-3.03284 6.99358,3.98097 -16.08657,10.81891 -48.26889,46.16115 -52.81013,57.99543 -0.47957,1.24974 2.98447,-0.39568 8.32783,-3.95574 11.96736,-7.97336 43.45106,-23.4201 57.92047,-28.41734 29.70068,-10.2576 66.85092,-15.1229 95.11325,-12.4563 8.86339,0.83628 20.81174,2.49258 26.5519,3.68066 5.74016,1.18808 10.76011,1.83668 11.15545,1.44133 1.57918,-1.57917 -18.41497,-32.63535 -32.19369,-50.00528 l -6.73175,-8.48628 -24.66667,0.71459 c -27.51441,0.79708 -41.17364,3.1205 -65.15904,11.08349 -25.31316,8.40381 -59.32596,26.81203 -79.19833,42.86328 l -5.02403,4.058 -3.95896,-3.95896 -3.95896,-3.95896 -7.68368,5.46893 c -35.96209,25.59636 -73.61999,60.5309 -83.32939,77.30311 -3.67144,6.34212 -4.54685,8.87545 -3.33333,9.64625 2.75782,1.75172 21.12926,1.16848 30.14605,-0.95702 z"
     style="fill:#010101;stroke-width:1.33333337" />
</svg>
